# Wavefront Obj file
# 
# verts: 46 uv-s: 50
mtllib rock1.mtl

g Roca_2
#pivot -18.478550 -16.385181 4.313930

v -19.602171 -17.913420 4.084917
v -18.954668 -18.457788 4.131938
v -18.892143 -18.511299 4.409451
v -18.879211 -18.523119 4.557936
v -19.646187 -18.458569 5.305172
v -20.670509 -17.375055 5.365775
v -20.742294 -16.958050 4.679252
v -20.747414 -16.953028 4.529910
v -20.592003 -17.079632 4.242639
v -19.925104 -17.632505 4.120374
v -18.646713 -17.415483 3.699448
v -17.673370 -18.241903 3.912646
v -17.555113 -18.361511 4.325696
v -17.563900 -18.372084 4.724952
v -18.385969 -18.098961 6.901255
v -20.215706 -15.996458 6.626938
v -20.768188 -15.642195 5.528112
v -20.708075 -15.668907 4.596871
v -20.572163 -15.766432 4.161852
v -19.626007 -16.563616 3.806974
v -17.631889 -16.387844 3.613943
v -16.620472 -17.228516 3.861861
v -16.469669 -17.333612 4.314295
v -16.469017 -17.336706 4.775119
v -17.223949 -16.805593 6.971449
v -19.393417 -14.997885 6.703937
v -19.886702 -14.421190 5.601709
v -19.840353 -14.451616 4.609375
v -19.719349 -14.578995 4.133037
v -18.758507 -15.407822 3.737644
v -16.937757 -15.066181 3.909057
v -16.222494 -15.689671 4.019944
v -16.136114 -15.763768 4.392979
v -16.115955 -15.781722 4.630860
v -16.444492 -15.485060 5.448646
v -17.435671 -14.645948 5.522890
v -17.930496 -14.223089 4.800446
v -17.939735 -14.214634 4.561366
v -17.901873 -14.248612 4.174689
v -17.515320 -14.563772 3.972472
v -19.905729 -18.229267 5.619568
v -19.272703 -17.348358 7.361638
v -18.160797 -16.011398 7.437336
v -17.126499 -14.911362 5.774841
v -19.746531 -18.403248 4.658361
v -16.750473 -14.950288 4.658092
# 46 positions

vt 0.084016 0.847870
vt 0.032473 0.573273
vt 0.099549 0.550065
vt 0.128786 0.794883
vt 0.271282 0.528272
vt 0.251907 0.682661
vt 0.310766 0.536348
vt 0.294168 0.682057
vt 0.342075 0.546335
vt 0.314277 0.682084
vt 0.468532 0.595502
vt 0.407070 0.747455
vt 0.519801 0.613715
vt 0.597521 0.639597
vt 0.547784 0.760083
vt 0.457026 0.737956
vt 0.654783 0.685709
vt 0.603781 0.803628
vt 0.706762 0.732549
vt 0.612115 0.818858
vt 0.740648 0.767542
vt 0.615021 0.865272
vt 0.771246 0.851506
vt 0.510317 0.965443
vt 0.139795 0.254217
vt 0.176095 0.313207
vt 0.320914 0.410957
vt 0.357407 0.431095
vt 0.389187 0.448893
vt 0.500040 0.521962
vt 0.553752 0.551409
vt 0.623742 0.581493
vt 0.691784 0.603214
vt 0.762152 0.622991
vt 0.811279 0.634652
vt 0.898439 0.607781
vt 0.397776 0.036026
vt 0.388899 0.115974
vt 0.406339 0.277946
vt 0.440094 0.308181
vt 0.459705 0.325560
vt 0.535252 0.367031
vt 0.652521 0.408643
vt 0.610638 0.404403
vt 0.749237 0.427117
vt 0.779760 0.420458
vt 0.837988 0.404578
vt 0.881404 0.293316
vt 0.315270 0.951837
vt 0.711650 0.051788
# 50 texture coordinates

vn -0.454682 -0.372157 -0.809175
vn -0.252476 -0.030233 -0.967131
vn -0.100339 -0.180085 -0.978520
vn -0.383288 -0.431179 -0.816808
vn 0.244623 -0.654571 -0.715330
vn -0.148427 -0.766726 -0.624580
vn 0.425335 -0.886786 -0.180832
vn -0.018756 -0.990227 -0.138199
vn 0.438301 -0.888750 0.134227
vn 0.011149 -0.999691 0.022238
vn 0.193294 -0.762572 0.617351
vn -0.319901 -0.933326 0.162989
vn -0.338926 -0.337971 0.878012
vn -0.729141 0.123212 0.673181
vn -0.898069 -0.389043 0.205227
vn -0.636645 -0.684918 0.354358
vn -0.931761 0.288179 0.220849
vn -0.964221 -0.264611 0.016059
vn -0.923807 0.318019 -0.213177
vn -0.954765 -0.238554 -0.177529
vn -0.684307 0.199427 -0.701393
vn -0.728140 -0.301864 -0.615378
vn -0.098545 0.197527 -0.975332
vn 0.084479 0.017641 -0.996269
vn 0.594495 -0.317225 -0.738880
vn 0.854666 -0.483725 -0.188563
vn 0.863099 -0.470079 0.184623
vn 0.681686 -0.189264 0.706741
vn 0.197821 0.294809 0.934856
vn -0.243415 0.652489 0.717640
vn -0.453976 0.846754 0.277332
vn -0.509129 0.843864 -0.169354
vn -0.394873 0.643337 -0.655890
vn 0.328564 0.619857 -0.712617
vn 0.444854 0.491305 -0.748815
vn 0.759026 0.248394 -0.601814
vn 0.970681 0.205668 -0.124413
vn 0.978038 0.169900 0.120729
vn 0.858789 0.333665 0.388780
vn 0.356309 0.857840 0.370344
vn 0.532472 0.683370 0.499479
vn 0.216915 0.964969 0.147590
vn 0.192932 0.978768 -0.069206
vn 0.156091 0.842954 -0.514844
vn -0.513830 -0.812228 -0.276161
vn 0.669908 0.742117 -0.022047
# 46 normals

usemtl 01_-_Default
s 1
f 10/1/1 20/2/2 11/3/3 1/4/4
f 1/4/4 11/3/3 12/5/5 2/6/6
f 2/6/6 12/5/5 13/7/7 3/8/8
f 3/8/8 13/7/7 14/9/9 4/10/10
f 4/10/10 14/9/9 15/11/11 5/12/12
f 42/13/13 16/14/14 6/15/15 41/16/16
f 6/15/15 16/14/14 17/17/17 7/18/18
f 7/18/18 17/17/17 18/19/19 8/20/20
f 8/20/20 18/19/19 19/21/21 9/22/22
f 9/22/22 19/21/21 20/23/2 10/24/1
f 20/2/2 30/25/23 21/26/24 11/3/3
f 11/3/3 21/26/24 22/27/25 12/5/5
f 12/5/5 22/27/25 23/28/26 13/7/7
f 13/7/7 23/28/26 24/29/27 14/9/9
f 14/9/9 24/29/27 25/30/28 15/11/11
f 43/31/29 26/32/30 16/14/14 42/13/13
f 16/14/14 26/32/30 27/33/31 17/17/17
f 17/17/17 27/33/31 28/34/32 18/19/19
f 18/19/19 28/34/32 29/35/33 19/21/21
f 19/21/21 29/35/33 30/36/23 20/23/2
f 30/25/23 40/37/34 31/38/35 21/26/24
f 21/26/24 31/38/35 32/39/36 22/27/25
f 22/27/25 32/39/36 33/40/37 23/28/26
f 23/28/26 33/40/37 34/41/38 24/29/27
f 24/29/27 34/41/38 35/42/39 25/30/28
f 36/43/40 26/32/30 43/31/29 44/44/41
f 26/32/30 36/43/40 37/45/42 27/33/31
f 27/33/31 37/45/42 38/46/43 28/34/32
f 28/34/32 38/46/43 39/47/44 29/35/33
f 29/35/33 39/47/44 40/48/34 30/36/23
f 5/12/12 15/11/11 42/13/13 41/16/16
f 15/11/11 25/30/28 43/31/29 42/13/13
f 43/31/29 25/30/28 35/42/39 44/44/41
f 10/1/1 1/4/4 45/49/45
f 1/4/4 2/6/6 45/49/45
f 2/6/6 3/8/8 45/49/45
f 3/8/8 4/10/10 45/49/45
f 4/10/10 5/12/12 45/49/45
f 5/12/12 41/16/16 45/49/45
f 41/16/16 6/15/15 45/49/45
f 6/15/15 7/18/18 45/49/45
f 7/18/18 8/20/20 45/49/45
f 8/20/20 9/22/22 45/49/45
f 9/22/22 10/24/1 45/49/45
f 32/39/36 31/38/35 46/50/46
f 31/38/35 40/37/34 46/50/46
f 40/48/34 39/47/44 46/50/46
f 39/47/44 38/46/43 46/50/46
f 38/46/43 37/45/42 46/50/46
f 37/45/42 36/43/40 46/50/46
f 36/43/40 44/44/41 46/50/46
f 44/44/41 35/42/39 46/50/46
f 35/42/39 34/41/38 46/50/46
f 34/41/38 33/40/37 46/50/46
f 33/40/37 32/39/36 46/50/46

# 55 faces
