# Wavefront Obj file
# 
# verts: 52 uv-s: 91
mtllib cannonBall.mtl

g Sphere
#pivot 0.000000 0.000000 0.000000

v 29.389269 86.602531 -40.450863
v 50.903702 49.999985 -70.062927
v 58.778530 -0.000018 -80.901703
v 50.903702 -50.000019 -70.062912
v 29.389271 -86.602547 -40.450836
v 47.552837 86.602539 -15.450858
v 82.363922 49.999992 -26.761665
v 95.105667 -0.000009 -30.901697
v 82.363922 -50.000011 -26.761642
v 47.552841 -86.602539 -15.450831
v 47.552837 86.602539 15.450848
v 82.363930 50.000000 26.761656
v 95.105667 0.000001 30.901709
v 82.363922 -50.000004 26.761677
v 47.552841 -86.602539 15.450878
v 29.389269 86.602547 40.450851
v 50.903713 50.000008 70.062943
v 58.778538 0.000009 80.901718
v 50.903709 -49.999996 70.062958
v 29.389275 -86.602531 40.450890
v -0.000001 86.602547 50.000004
v 0.000011 50.000011 86.602554
v 0.000005 0.000012 100.000031
v 0.000005 -49.999992 86.602570
v 0.000001 -86.602531 50.000038
v 0.000000 -100.000000 0.000025
v -0.000005 100.000000 -0.000000
v -29.389269 86.602547 40.450851
v -50.903690 50.000008 70.062943
v -58.778526 0.000009 80.901733
v -50.903694 -49.999996 70.062958
v -29.389271 -86.602531 40.450886
v -47.552837 86.602539 15.450850
v -82.363914 50.000000 26.761679
v -95.105659 0.000001 30.901724
v -82.363914 -50.000004 26.761686
v -47.552837 -86.602539 15.450878
v -47.552837 86.602539 -15.450857
v -82.363930 49.999992 -26.761639
v -95.105667 -0.000009 -30.901682
v -82.363922 -50.000011 -26.761629
v -47.552837 -86.602539 -15.450829
v -29.389269 86.602531 -40.450863
v -50.903721 49.999985 -70.062927
v -58.778542 -0.000018 -80.901688
v -50.903713 -50.000019 -70.062897
v -29.389271 -86.602547 -40.450832
v -0.000002 86.602531 -50.000011
v -0.000022 49.999981 -86.602554
v -0.000013 -0.000021 -100.000000
v -0.000019 -50.000023 -86.602524
v -0.000004 -86.602547 -49.999981
# 52 positions

vt 0.562435 0.543282
vt 0.649401 0.516903
vt 0.649401 0.641727
vt 0.562435 0.615348
vt 0.105441 0.493953
vt 0.225774 0.503608
vt 0.225774 0.628432
vt 0.105441 0.638087
vt 0.759309 0.308220
vt 0.795342 0.199783
vt 0.831376 0.308220
vt 0.449618 0.579315
vt 0.000000 0.503608
vt 0.000000 0.628432
vt 0.328754 0.529987
vt 0.328754 0.602053
vt 0.244157 0.729416
vt 0.126669 0.754693
vt 0.889679 0.265964
vt 0.520179 0.673652
vt 0.018384 0.729416
vt 0.339368 0.660357
vt 0.576212 0.742711
vt 0.911949 0.197593
vt 0.451808 0.695921
vt 0.357752 0.025277
vt 0.466037 0.000000
vt 0.444809 0.116607
vt 0.339368 0.126262
vt 0.583525 0.025277
vt 0.678736 0.094337
vt 0.668122 0.152640
vt 0.565142 0.126262
vt 0.457790 0.781283
vt 0.383437 0.673652
vt 0.444809 0.260740
vt 0.339368 0.251085
vt 0.668122 0.224707
vt 0.565142 0.251085
vt 0.339368 0.742711
vt 0.889679 0.129222
vt 0.341181 0.615348
vt 0.899154 0.396025
vt 1.000000 0.461391
vt 0.932400 0.558746
vt 0.840611 0.480337
vt 0.678736 0.283010
vt 0.583525 0.352069
vt 0.783028 0.377347
vt 0.749228 0.426024
vt 0.466037 0.377347
vt 0.831376 0.086967
vt 0.341181 0.543281
vt 0.830318 0.660499
vt 0.752206 0.568458
vt 0.857754 0.000000
vt 0.759309 0.086967
vt 0.732931 0.000000
vt 0.698187 0.476901
vt 1.000000 0.640240
vt 0.911595 0.728361
vt 0.732746 0.727785
vt 0.667706 0.626730
vt 0.244157 0.025277
vt 0.339368 0.094337
vt 0.328754 0.152640
vt 0.225774 0.126262
vt 0.649401 0.510544
vt 0.126669 0.000000
vt 0.105441 0.116606
vt 0.701006 0.129222
vt 0.383437 0.484978
vt 0.328754 0.224707
vt 0.225774 0.251085
vt 0.339368 0.415919
vt 0.457790 0.377347
vt 0.451808 0.462708
vt 0.105441 0.260740
vt 0.678736 0.197593
vt 0.000000 0.126262
vt 0.000000 0.251085
vt 0.576212 0.415919
vt 0.520179 0.484978
vt 0.244157 0.352069
vt 0.126669 0.377347
vt 0.701006 0.265964
vt 0.018384 0.352069
vt 0.339368 0.283010
vt 0.244157 0.402624
vt 0.018384 0.402624
vt 0.339368 0.471683
# 91 texture coordinates

vn 0.223919 -0.689152 -0.689152
vn 0.223919 -0.689152 -0.689152
vn 0.223919 -0.689152 -0.689152
vn 0.223919 -0.689152 -0.689152
vn 0.299447 0.246943 -0.921602
vn 0.299447 0.246943 -0.921602
vn 0.299447 0.246943 -0.921602
vn 0.299447 0.246943 -0.921602
vn 0.083800 0.962528 -0.257909
vn 0.083800 0.962528 -0.257909
vn 0.083800 0.962528 -0.257909
vn 0.083799 -0.962528 -0.257909
vn 0.083799 -0.962528 -0.257909
vn 0.083799 -0.962528 -0.257909
vn 0.299447 -0.246943 -0.921602
vn 0.299447 -0.246943 -0.921602
vn 0.299447 -0.246943 -0.921602
vn 0.299447 -0.246943 -0.921602
vn 0.223919 0.689152 -0.689152
vn 0.223919 0.689152 -0.689152
vn 0.223919 0.689152 -0.689152
vn 0.223919 0.689152 -0.689152
vn 0.783962 0.246943 -0.569582
vn 0.783962 0.246943 -0.569582
vn 0.783962 0.246943 -0.569582
vn 0.783962 0.246943 -0.569582
vn 0.219390 0.962528 -0.159397
vn 0.219390 0.962528 -0.159397
vn 0.219390 0.962528 -0.159397
vn 0.219390 -0.962528 -0.159396
vn 0.219390 -0.962528 -0.159396
vn 0.219390 -0.962528 -0.159396
vn 0.783962 -0.246943 -0.569582
vn 0.783962 -0.246943 -0.569582
vn 0.783962 -0.246943 -0.569582
vn 0.783962 -0.246943 -0.569582
vn 0.586227 0.689152 -0.425919
vn 0.586227 0.689152 -0.425919
vn 0.586227 0.689152 -0.425919
vn 0.586227 0.689152 -0.425919
vn 0.586227 -0.689152 -0.425919
vn 0.586227 -0.689152 -0.425919
vn 0.586227 -0.689152 -0.425919
vn 0.586227 -0.689152 -0.425919
vn 0.271181 0.962528 0.000000
vn 0.271181 0.962528 0.000000
vn 0.271181 0.962528 0.000000
vn 0.271181 -0.962528 0.000000
vn 0.271181 -0.962528 0.000000
vn 0.271181 -0.962528 0.000000
vn 0.969030 -0.246943 0.000000
vn 0.969030 -0.246943 0.000000
vn 0.969030 -0.246943 0.000000
vn 0.969030 -0.246943 0.000000
vn 0.724617 0.689152 -0.000000
vn 0.724617 0.689152 -0.000000
vn 0.724617 0.689152 -0.000000
vn 0.724617 0.689152 -0.000000
vn 0.724617 -0.689152 0.000000
vn 0.724617 -0.689152 0.000000
vn 0.724617 -0.689152 0.000000
vn 0.724617 -0.689152 0.000000
vn 0.969030 0.246943 -0.000000
vn 0.969030 0.246943 -0.000000
vn 0.969030 0.246943 -0.000000
vn 0.969030 0.246943 -0.000000
vn 0.219390 -0.962528 0.159397
vn 0.219390 -0.962528 0.159396
vn 0.219390 -0.962528 0.159396
vn 0.783962 -0.246942 0.569582
vn 0.783962 -0.246942 0.569582
vn 0.783962 -0.246942 0.569582
vn 0.783962 -0.246942 0.569582
vn 0.586228 0.689152 0.425919
vn 0.586228 0.689152 0.425919
vn 0.586228 0.689152 0.425919
vn 0.586228 0.689152 0.425919
vn 0.586227 -0.689152 0.425919
vn 0.586227 -0.689152 0.425919
vn 0.586227 -0.689152 0.425919
vn 0.586228 -0.689152 0.425919
vn 0.783962 0.246943 0.569582
vn 0.783962 0.246943 0.569582
vn 0.783962 0.246943 0.569582
vn 0.783962 0.246943 0.569582
vn 0.219390 0.962528 0.159396
vn 0.219390 0.962528 0.159396
vn 0.219390 0.962528 0.159396
vn 0.083800 -0.962528 0.257909
vn 0.083800 -0.962528 0.257909
vn 0.083800 -0.962528 0.257909
vn 0.299447 -0.246943 0.921602
vn 0.299447 -0.246942 0.921602
vn 0.299447 -0.246942 0.921602
vn 0.299447 -0.246943 0.921602
vn 0.223919 0.689152 0.689152
vn 0.223919 0.689152 0.689152
vn 0.223919 0.689152 0.689152
vn 0.223919 0.689152 0.689152
vn 0.223919 -0.689152 0.689152
vn 0.223919 -0.689152 0.689152
vn 0.223919 -0.689152 0.689152
vn 0.223919 -0.689152 0.689152
vn 0.299447 0.246943 0.921602
vn 0.299447 0.246943 0.921602
vn 0.299447 0.246943 0.921602
vn 0.299447 0.246943 0.921602
vn 0.083800 0.962528 0.257909
vn 0.083800 0.962528 0.257909
vn 0.083800 0.962528 0.257909
vn -0.083800 -0.962528 0.257909
vn -0.083800 -0.962528 0.257909
vn -0.083800 -0.962528 0.257909
vn -0.299447 -0.246943 0.921602
vn -0.299447 -0.246943 0.921602
vn -0.299447 -0.246943 0.921602
vn -0.299447 -0.246943 0.921602
vn -0.223919 0.689152 0.689152
vn -0.223919 0.689152 0.689152
vn -0.223919 0.689152 0.689152
vn -0.223919 0.689152 0.689152
vn -0.223919 -0.689152 0.689152
vn -0.223919 -0.689152 0.689152
vn -0.223919 -0.689152 0.689152
vn -0.223919 -0.689152 0.689152
vn -0.299447 0.246943 0.921602
vn -0.299447 0.246943 0.921602
vn -0.299447 0.246943 0.921602
vn -0.299447 0.246943 0.921602
vn -0.083800 0.962528 0.257909
vn -0.083800 0.962528 0.257909
vn -0.083800 0.962528 0.257909
vn -0.783962 -0.246943 0.569582
vn -0.783962 -0.246943 0.569582
vn -0.783962 -0.246943 0.569582
vn -0.783962 -0.246943 0.569582
vn -0.586227 0.689152 0.425919
vn -0.586227 0.689152 0.425919
vn -0.586227 0.689152 0.425919
vn -0.586227 0.689152 0.425919
vn -0.586227 -0.689152 0.425919
vn -0.586227 -0.689152 0.425919
vn -0.586227 -0.689152 0.425919
vn -0.586227 -0.689152 0.425919
vn -0.783962 0.246943 0.569582
vn -0.783962 0.246943 0.569582
vn -0.783962 0.246943 0.569582
vn -0.783962 0.246943 0.569582
vn -0.219390 0.962528 0.159396
vn -0.219390 0.962528 0.159396
vn -0.219390 0.962528 0.159396
vn -0.219390 -0.962528 0.159397
vn -0.219390 -0.962528 0.159397
vn -0.219390 -0.962528 0.159397
vn -0.724617 0.689152 0.000000
vn -0.724617 0.689152 0.000000
vn -0.724617 0.689152 0.000000
vn -0.724617 0.689152 0.000000
vn -0.724617 -0.689152 0.000000
vn -0.724617 -0.689152 0.000000
vn -0.724617 -0.689152 0.000000
vn -0.724617 -0.689152 0.000000
vn -0.969030 0.246943 0.000000
vn -0.969030 0.246943 0.000000
vn -0.969030 0.246943 0.000000
vn -0.969030 0.246943 0.000000
vn -0.271181 0.962528 0.000000
vn -0.271181 0.962528 0.000000
vn -0.271181 0.962528 0.000000
vn -0.271181 -0.962528 0.000000
vn -0.271181 -0.962528 0.000000
vn -0.271181 -0.962528 0.000000
vn -0.969030 -0.246943 0.000000
vn -0.969030 -0.246943 0.000000
vn -0.969030 -0.246943 0.000000
vn -0.969030 -0.246943 0.000000
vn -0.586228 -0.689152 -0.425919
vn -0.586227 -0.689152 -0.425919
vn -0.586227 -0.689152 -0.425919
vn -0.586227 -0.689152 -0.425919
vn -0.783962 0.246942 -0.569582
vn -0.783962 0.246942 -0.569581
vn -0.783962 0.246942 -0.569582
vn -0.783962 0.246942 -0.569581
vn -0.219390 0.962528 -0.159397
vn -0.219390 0.962528 -0.159397
vn -0.219390 0.962528 -0.159397
vn -0.219390 -0.962528 -0.159396
vn -0.219390 -0.962528 -0.159396
vn -0.219390 -0.962528 -0.159396
vn -0.783962 -0.246943 -0.569581
vn -0.783962 -0.246943 -0.569581
vn -0.783962 -0.246943 -0.569582
vn -0.783962 -0.246943 -0.569582
vn -0.586228 0.689152 -0.425919
vn -0.586228 0.689152 -0.425919
vn -0.586228 0.689152 -0.425919
vn -0.586228 0.689152 -0.425919
vn -0.223919 -0.689152 -0.689152
vn -0.223919 -0.689152 -0.689152
vn -0.223919 -0.689152 -0.689152
vn -0.223919 -0.689152 -0.689152
vn -0.299447 0.246942 -0.921602
vn -0.299447 0.246942 -0.921602
vn -0.299447 0.246942 -0.921602
vn -0.299447 0.246942 -0.921602
vn -0.083800 0.962528 -0.257909
vn -0.083800 0.962528 -0.257909
vn -0.083800 0.962528 -0.257909
vn -0.083800 -0.962528 -0.257909
vn -0.083800 -0.962528 -0.257909
vn -0.083800 -0.962528 -0.257909
vn -0.299447 -0.246943 -0.921602
vn -0.299447 -0.246943 -0.921602
vn -0.299447 -0.246943 -0.921602
vn -0.299447 -0.246943 -0.921602
vn -0.223919 0.689152 -0.689152
vn -0.223919 0.689152 -0.689152
vn -0.223919 0.689152 -0.689152
vn -0.223919 0.689152 -0.689152
# 220 normals

usemtl 
s 1
f 52/1/1 51/2/2 4/3/3 5/4/4
s 2
f 50/5/5 49/6/6 2/7/7 3/8/8
s 3
f 48/9/9 27/10/10 1/11/11
s 4
f 26/12/12 52/1/13 5/4/14
s 5
f 51/13/15 50/5/16 3/8/17 4/14/18
s 6
f 49/6/19 48/15/20 1/16/21 2/7/22
s 7
f 3/8/23 2/7/24 7/17/25 8/18/26
s 8
f 1/11/27 27/10/28 6/19/29
s 9
f 26/12/30 5/4/31 10/20/32
s 10
f 4/14/33 3/8/34 8/18/35 9/21/36
s 11
f 2/7/37 1/16/38 6/22/39 7/17/40
s 12
f 5/4/41 4/3/42 9/23/43 10/20/44
s 13
f 6/19/45 27/10/46 11/24/47
s 14
f 26/12/48 10/20/49 15/25/50
s 15
f 9/26/51 8/27/52 13/28/53 14/29/54
s 16
f 7/30/55 6/31/56 11/32/57 12/33/58
s 17
f 10/20/59 9/23/60 14/34/61 15/25/62
s 18
f 8/27/63 7/30/64 12/33/65 13/28/66
s 19
f 26/12/67 15/25/68 20/35/69
s 20
f 14/29/70 13/28/71 18/36/72 19/37/73
s 21
f 12/33/74 11/32/75 16/38/76 17/39/77
s 22
f 15/25/78 14/34/79 19/40/80 20/35/81
s 23
f 13/28/82 12/33/83 17/39/84 18/36/85
s 24
f 11/24/86 27/10/87 16/41/88
s 25
f 26/12/89 20/35/90 25/42/91
s 26
f 19/43/92 18/44/93 23/45/94 24/46/95
s 27
f 17/39/96 16/38/97 21/47/98 22/48/99
s 28
f 20/49/100 19/43/101 24/46/102 25/50/103
s 29
f 18/36/104 17/39/105 22/48/106 23/51/107
s 30
f 16/41/108 27/10/109 21/52/110
s 31
f 26/12/111 25/42/112 32/53/113
s 32
f 24/46/114 23/45/115 30/54/116 31/55/117
s 33
f 22/56/118 21/52/119 28/57/120 29/58/121
s 34
f 25/50/122 24/46/123 31/55/124 32/59/125
s 35
f 23/45/126 22/60/127 29/61/128 30/54/129
s 36
f 21/52/130 27/10/131 28/57/132
s 37
f 31/55/133 30/54/134 35/62/135 36/63/136
s 38
f 29/64/137 28/65/138 33/66/139 34/67/140
s 39
f 32/59/141 31/55/142 36/63/143 37/68/144
s 40
f 30/69/145 29/64/146 34/67/147 35/70/148
s 41
f 28/57/149 27/10/150 33/71/151
s 42
f 26/12/152 32/53/153 37/72/154
s 43
f 34/67/155 33/66/156 38/73/157 39/74/158
s 44
f 37/72/159 36/75/160 41/76/161 42/77/162
s 45
f 35/70/163 34/67/164 39/74/165 40/78/166
s 46
f 33/71/167 27/10/168 38/79/169
s 47
f 26/12/170 37/72/171 42/77/172
s 48
f 36/80/173 35/70/174 40/78/175 41/81/176
s 49
f 42/77/177 41/76/178 46/82/179 47/83/180
s 50
f 40/78/181 39/74/182 44/84/183 45/85/184
s 51
f 38/79/185 27/10/186 43/86/187
s 52
f 26/12/188 42/77/189 47/83/190
s 53
f 41/81/191 40/78/192 45/85/193 46/87/194
s 54
f 39/74/195 38/73/196 43/88/197 44/84/198
s 55
f 47/83/199 46/82/200 51/2/201 52/1/202
s 56
f 45/85/203 44/89/204 49/6/205 50/5/206
s 57
f 43/86/207 27/10/208 48/9/209
s 58
f 26/12/210 47/83/211 52/1/212
s 59
f 46/90/213 45/85/214 50/5/215 51/13/216
s 60
f 44/89/217 43/91/218 48/15/219 49/6/220

# 60 faces
